<?xml version="1.0" encoding="UTF-8" standalone="no"?>
<svg
   xmlns:dc="http://purl.org/dc/elements/1.1/"
   xmlns:cc="http://creativecommons.org/ns#"
   xmlns:rdf="http://www.w3.org/1999/02/22-rdf-syntax-ns#"
   xmlns:svg="http://www.w3.org/2000/svg"
   xmlns="http://www.w3.org/2000/svg"
   xmlns:sodipodi="http://sodipodi.sourceforge.net/DTD/sodipodi-0.dtd"
   xmlns:inkscape="http://www.inkscape.org/namespaces/inkscape"
   width="18px"
   height="20px"
   viewBox="0 0 18 20"
   version="1.1"
   id="svg15"
   sodipodi:docname="ic_graphic_eq.svg"
   inkscape:version="0.92.3 (2405546, 2018-03-11)">
  <metadata
     id="metadata19">
    <rdf:RDF>
      <cc:Work
         rdf:about="">
        <dc:format>image/svg+xml</dc:format>
        <dc:type
           rdf:resource="http://purl.org/dc/dcmitype/StillImage" />
      </cc:Work>
    </rdf:RDF>
  </metadata>
  <sodipodi:namedview
     pagecolor="#ffffff"
     bordercolor="#666666"
     borderopacity="1"
     objecttolerance="10"
     gridtolerance="10"
     guidetolerance="10"
     inkscape:pageopacity="0"
     inkscape:pageshadow="2"
     inkscape:window-width="716"
     inkscape:window-height="480"
     id="namedview17"
     showgrid="false"
     inkscape:zoom="11.8"
     inkscape:cx="9"
     inkscape:cy="10"
     inkscape:window-x="0"
     inkscape:window-y="0"
     inkscape:window-maximized="0"
     inkscape:current-layer="svg15" />
  <!-- Generator: Sketch 49 (51002) - http://www.bohemiancoding.com/sketch -->
  <title
     id="title2">ic_graphic_eq</title>
  <desc
     id="desc4">Created with Sketch.</desc>
  <defs
     id="defs6" />
  <g
     id="Site"
     stroke="none"
     stroke-width="1"
     fill="none"
     fill-rule="evenodd">
    <g
       id="Institutions"
       transform="translate(-532.000000, -3102.000000)">
      <g
         id="ic_graphic_eq"
         transform="translate(529.000000, 3100.000000)">
        <g
           id="Icon-24px">
          <polygon
             id="Shape"
             points="0 0 24 0 24 24 0 24" />
          <path
             d="M7,18 L9,18 L9,6 L7,6 L7,18 L7,18 Z M11,22 L13,22 L13,2 L11,2 L11,22 L11,22 Z M3,14 L5,14 L5,10 L3,10 L3,14 L3,14 Z M15,18 L17,18 L17,6 L15,6 L15,18 L15,18 Z M19,10 L19,14 L21,14 L21,10 L19,10 L19,10 Z"
             id="path9"
             fill="#000000"
             style="fill:#0000ff" />
        </g>
      </g>
    </g>
  </g>
</svg>
